<mxfile host="Electron" agent="Mozilla/5.0 (Windows NT 10.0; Win64; x64) AppleWebKit/537.36 (KHTML, like Gecko) draw.io/25.0.2 Chrome/128.0.6613.186 Electron/32.2.5 Safari/537.36" version="25.0.2">
  <diagram id="C5RBs43oDa-KdzZeNtuy" name="Page-1">
    <mxGraphModel dx="1434" dy="965" grid="1" gridSize="10" guides="1" tooltips="1" connect="1" arrows="1" fold="1" page="1" pageScale="1" pageWidth="827" pageHeight="1169" math="0" shadow="0">
      <root>
        <mxCell id="WIyWlLk6GJQsqaUBKTNV-0" />
        <mxCell id="WIyWlLk6GJQsqaUBKTNV-1" parent="WIyWlLk6GJQsqaUBKTNV-0" />
        <mxCell id="WIyWlLk6GJQsqaUBKTNV-8" value="" style="rounded=0;html=1;jettySize=auto;orthogonalLoop=1;fontSize=11;endArrow=block;endFill=0;endSize=8;strokeWidth=1;shadow=0;labelBackgroundColor=none;edgeStyle=orthogonalEdgeStyle;" parent="WIyWlLk6GJQsqaUBKTNV-1" target="9dnhrZeiodQg4RsuuzlO-13" edge="1">
          <mxGeometry x="1" y="71" relative="1" as="geometry">
            <mxPoint y="4" as="offset" />
            <mxPoint x="219.5" y="430" as="sourcePoint" />
            <mxPoint x="219.5" y="490" as="targetPoint" />
            <Array as="points">
              <mxPoint x="220.5" y="430" />
              <mxPoint x="220.5" y="450" />
              <mxPoint x="219.5" y="450" />
            </Array>
          </mxGeometry>
        </mxCell>
        <mxCell id="9dnhrZeiodQg4RsuuzlO-0" value="input number1&lt;div&gt;number2&lt;br&gt;&lt;div&gt;&lt;br&gt;&lt;/div&gt;&lt;/div&gt;" style="shape=parallelogram;perimeter=parallelogramPerimeter;whiteSpace=wrap;html=1;fixedSize=1;" parent="WIyWlLk6GJQsqaUBKTNV-1" vertex="1">
          <mxGeometry x="155" y="200" width="120" height="60" as="geometry" />
        </mxCell>
        <mxCell id="NZwooVwqbDBXMBZRbt-7-2" style="edgeStyle=orthogonalEdgeStyle;rounded=0;orthogonalLoop=1;jettySize=auto;html=1;entryX=0.5;entryY=0;entryDx=0;entryDy=0;" edge="1" parent="WIyWlLk6GJQsqaUBKTNV-1" source="9dnhrZeiodQg4RsuuzlO-6" target="9dnhrZeiodQg4RsuuzlO-0">
          <mxGeometry relative="1" as="geometry" />
        </mxCell>
        <mxCell id="9dnhrZeiodQg4RsuuzlO-6" value="Start" style="ellipse;whiteSpace=wrap;html=1;" parent="WIyWlLk6GJQsqaUBKTNV-1" vertex="1">
          <mxGeometry x="160" y="70" width="110" height="50" as="geometry" />
        </mxCell>
        <mxCell id="9dnhrZeiodQg4RsuuzlO-7" value="end" style="ellipse;whiteSpace=wrap;html=1;rounded=1;glass=0;strokeWidth=1;shadow=0;" parent="WIyWlLk6GJQsqaUBKTNV-1" vertex="1">
          <mxGeometry x="185" y="585" width="80" height="50" as="geometry" />
        </mxCell>
        <mxCell id="9dnhrZeiodQg4RsuuzlO-15" value="" style="edgeStyle=orthogonalEdgeStyle;rounded=0;orthogonalLoop=1;jettySize=auto;html=1;" parent="WIyWlLk6GJQsqaUBKTNV-1" source="9dnhrZeiodQg4RsuuzlO-11" target="9dnhrZeiodQg4RsuuzlO-13" edge="1">
          <mxGeometry relative="1" as="geometry" />
        </mxCell>
        <mxCell id="9dnhrZeiodQg4RsuuzlO-11" value="sum=number1+number2" style="rounded=0;whiteSpace=wrap;html=1;" parent="WIyWlLk6GJQsqaUBKTNV-1" vertex="1">
          <mxGeometry x="150" y="310" width="150" height="60" as="geometry" />
        </mxCell>
        <mxCell id="9dnhrZeiodQg4RsuuzlO-16" value="" style="edgeStyle=orthogonalEdgeStyle;rounded=0;orthogonalLoop=1;jettySize=auto;html=1;" parent="WIyWlLk6GJQsqaUBKTNV-1" source="9dnhrZeiodQg4RsuuzlO-13" target="9dnhrZeiodQg4RsuuzlO-7" edge="1">
          <mxGeometry relative="1" as="geometry" />
        </mxCell>
        <mxCell id="9dnhrZeiodQg4RsuuzlO-13" value="sum" style="rhombus;whiteSpace=wrap;html=1;" parent="WIyWlLk6GJQsqaUBKTNV-1" vertex="1">
          <mxGeometry x="185" y="430" width="80" height="80" as="geometry" />
        </mxCell>
        <mxCell id="NZwooVwqbDBXMBZRbt-7-5" style="edgeStyle=orthogonalEdgeStyle;rounded=0;orthogonalLoop=1;jettySize=auto;html=1;entryX=0.44;entryY=-0.011;entryDx=0;entryDy=0;entryPerimeter=0;" edge="1" parent="WIyWlLk6GJQsqaUBKTNV-1" source="9dnhrZeiodQg4RsuuzlO-0" target="9dnhrZeiodQg4RsuuzlO-11">
          <mxGeometry relative="1" as="geometry" />
        </mxCell>
      </root>
    </mxGraphModel>
  </diagram>
</mxfile>
